<?xml version="1.0" encoding="utf-8"?>
<!-- Generator: Adobe Illustrator 27.6.1, SVG Export Plug-In . SVG Version: 6.00 Build 0)  -->
<svg version="1.1" id="Capa_1" xmlns="http://www.w3.org/2000/svg" xmlns:xlink="http://www.w3.org/1999/xlink" x="0px" y="0px"
	 viewBox="0 0 50 50" style="enable-background:new 0 0 50 50;" xml:space="preserve">
<style type="text/css">
	.st0{fill:#FFFFFF;}
</style>
<path class="st0" d="M25.9,3.3c-9.3,0.2-10.4,7-8.4,14.9c-0.3,0.2-0.9,1-0.8,2.2c0.3,2.3,1.3,2.9,1.8,2.9c0.2,1.6,1,3.2,1.7,4.3
	c0.5,0.7,0.7,1.7,0.7,2.6c0,0.8,0,0.3-0.1,1.2c-0.1,0.3-0.3,0.6-0.4,0.8c0.2,0.8,1.5,4.7,5.7,4.7c4.3,0,5.5-4.2,5.6-4.7
	c-0.2-0.3-0.4-0.5-0.5-0.8c-0.1-1.2-0.1-0.6-0.1-1.6c0-0.8,0.3-1.6,0.8-2.2c0.7-1.1,1.4-2.8,1.7-4.4c0.6,0,1.6-0.6,1.8-2.9
	c0.1-1.3-0.4-2-0.8-2.2c1.1-2.9,3-12.1-3.7-13C30,3.9,28.2,3.3,25.9,3.3z M33.3,33.8C32.4,36,30.2,39,26,39c-4.2,0-6.4-3-7.3-5.2
	C14.5,36.3,6.1,37.1,6.1,46h39.9C45.9,36.9,37.5,36.3,33.3,33.8z"/>
</svg>
