<?xml version="1.0" encoding="utf-8"?>
<!-- Generator: Adobe Illustrator 27.6.1, SVG Export Plug-In . SVG Version: 6.00 Build 0)  -->
<svg version="1.1" id="Capa_1" xmlns="http://www.w3.org/2000/svg" xmlns:xlink="http://www.w3.org/1999/xlink" x="0px" y="0px"
	 viewBox="0 0 50 50" style="enable-background:new 0 0 50 50;" xml:space="preserve">
<style type="text/css">
	.st0{fill:#FFFFFF;}
</style>
<path class="st0" d="M25,1.1c-0.2,0-0.4,0.1-0.6,0.2l-23,18c-0.4,0.3-0.5,1-0.2,1.4c0.3,0.4,1,0.5,1.4,0.2L4,19.7V46
	c0,0.5,0.4,1,1,1h14V29h12v18h14c0.5,0,1-0.5,1-1V19.7l1.4,1.1c0.2,0.1,0.4,0.2,0.6,0.2c0.3,0,0.6-0.1,0.8-0.4
	c0.3-0.4,0.3-1.1-0.2-1.4l-23-18C25.4,1.1,25.2,1.1,25,1.1z M35,5v1.1l6,4.7V5H35z"/>
</svg>
